<svg width="233" height="149" viewBox="0 0 233 149" fill="none" xmlns="http://www.w3.org/2000/svg">
<path d="M88.2851 104.405L105.093 82.3698L102.5 110.701L109.241 112.275L98.8695 129.063L92.1277 137.982L83.8302 145.852L85.386 132.736L89.5348 119.095L79.1628 116.472L88.2851 104.405Z" fill="#FAFF00"/>
<path d="M99.5089 110.508L96.582 109.849C96.2591 111.443 97.2583 113.03 98.8351 113.43L99.5089 110.508ZM109.096 112.936L111.477 114.802C112.088 114 112.249 112.932 111.905 111.965C111.56 110.998 110.757 110.264 109.77 110.014L109.096 112.936ZM84.5474 145.121L81.6314 144.412C81.3276 145.788 82.0192 147.211 83.2932 147.83C84.5673 148.45 86.0799 148.099 86.9279 146.987L84.5474 145.121ZM90.4469 118.395L93.363 119.105C93.5364 118.319 93.3883 117.49 92.952 116.804C92.5157 116.118 91.8278 115.632 91.0428 115.455L90.4469 118.395ZM80.97 116.263L78.5558 114.442C77.9572 115.259 77.8177 116.335 78.1855 117.298C78.5533 118.261 79.3779 118.979 80.3741 119.203L80.97 116.263ZM104.985 83.4851L107.912 84.1437C108.193 82.7608 107.476 81.3491 106.19 80.7522C104.905 80.1554 103.398 80.5349 102.571 81.6638L104.985 83.4851ZM99.5089 110.508L98.8351 113.43L108.423 115.857L109.096 112.936L109.77 110.014L100.183 107.586L99.5089 110.508ZM109.096 112.936L106.716 111.069L82.167 143.254L84.5474 145.121L86.9279 146.987L111.477 114.802L109.096 112.936ZM84.5474 145.121L87.4635 145.83L93.363 119.105L90.4469 118.395L87.5309 117.686L81.6314 144.412L84.5474 145.121ZM90.4469 118.395L91.0428 115.455L81.5659 113.323L80.97 116.263L80.3741 119.203L89.851 121.336L90.4469 118.395ZM80.97 116.263L83.3842 118.084L107.4 85.3063L104.985 83.4851L102.571 81.6638L78.5558 114.442L80.97 116.263ZM104.985 83.4851L102.059 82.8265L96.582 109.849L99.5089 110.508L102.436 111.167L107.912 84.1437L104.985 83.4851Z" fill="#FAFF00"/>
<path d="M89.9443 95.2169L92.089 94.5971C97.2432 93.1077 102.027 90.5504 106.13 87.0915C110.507 82.7589 113.974 77.5943 116.325 71.9023L117.948 67.9704L122.47 54.2203C123.24 51.8769 124.706 49.823 126.671 48.3317C127.422 47.7618 128.237 47.2812 129.099 46.8996L134.71 44.4163C135.626 44.0108 136.617 43.8014 137.618 43.8014C137.988 43.8014 138.357 43.7728 138.723 43.7159L139.794 43.5492C143.159 43.0257 146.599 43.3201 149.825 44.4077L152.055 45.1597C153.515 45.6521 154.926 46.2799 156.27 47.0349C163.722 51.2235 168.481 58.9643 168.856 67.5082L168.898 68.4643C169.152 74.2397 167.46 79.935 164.093 84.6381L163.643 85.267C160.264 89.9878 155.277 93.3115 149.62 94.612C147.872 95.0139 146.085 95.2168 144.291 95.2168L25.9149 95.2168C20.2042 95.2168 14.8427 92.4764 11.5001 87.8489L10.9833 87.1335C8.42289 83.5889 7.45079 79.1385 8.29935 74.8462C9.10796 70.7558 11.5028 67.1505 14.9603 64.8186L15.2655 64.6129C19.5208 61.7428 24.8593 60.9923 29.7369 62.5785L33.3313 63.7473C34.9089 64.2603 36.5289 63.083 36.5289 61.4235L36.5289 53.5461C36.5289 46.4207 37.9389 39.3645 40.6777 32.784C43.7261 25.5879 48.6921 19.2927 55.3884 15.2625C57.8791 13.7635 60.3015 12.4246 61.9401 11.798C62.5796 11.5534 63.2834 11.282 64.0339 10.9908C76.0914 6.31364 89.6571 7.55902 100.523 14.5547C104.164 16.8986 107.399 19.8196 110.1 23.2034L112.8 26.5851C115.519 29.991 117.61 33.8544 118.974 37.9945C120.014 41.1518 120.621 44.4361 120.777 47.7574L120.816 48.5748C120.978 52.0255 120.721 55.4835 120.051 58.8732L119.787 60.2093C118.911 64.6429 117.48 68.9493 115.53 73.0271L110.688 83.1502" stroke="black" stroke-width="16" stroke-linecap="round"/>
</svg>
