<svg width="233" height="149" viewBox="0 0 233 149" fill="none" xmlns="http://www.w3.org/2000/svg">
<path d="M144.319 104.405L161.126 82.3698L158.533 110.701L165.275 112.275L154.903 129.063L148.161 137.982L139.864 145.852L141.419 132.736L145.568 119.095L135.196 116.472L144.319 104.405Z" fill="#FAFF00"/>
<path d="M155.542 110.508L152.615 109.849C152.293 111.443 153.292 113.03 154.869 113.43L155.542 110.508ZM165.13 112.936L167.51 114.802C168.122 114 168.283 112.932 167.938 111.965C167.594 110.998 166.79 110.264 165.804 110.014L165.13 112.936ZM140.581 145.121L137.665 144.412C137.361 145.788 138.053 147.211 139.327 147.83C140.601 148.45 142.113 148.099 142.961 146.987L140.581 145.121ZM146.48 118.395L149.396 119.105C149.57 118.319 149.422 117.49 148.985 116.804C148.549 116.118 147.861 115.632 147.076 115.455L146.48 118.395ZM137.003 116.263L134.589 114.442C133.991 115.259 133.851 116.335 134.219 117.298C134.587 118.261 135.411 118.979 136.408 119.203L137.003 116.263ZM161.019 83.4851L163.946 84.1437C164.226 82.7608 163.509 81.3491 162.224 80.7522C160.938 80.1554 159.432 80.5349 158.605 81.6638L161.019 83.4851ZM155.542 110.508L154.869 113.43L164.456 115.857L165.13 112.936L165.804 110.014L156.216 107.586L155.542 110.508ZM165.13 112.936L162.749 111.069L138.2 143.254L140.581 145.121L142.961 146.987L167.51 114.802L165.13 112.936ZM140.581 145.121L143.497 145.83L149.396 119.105L146.48 118.395L143.564 117.686L137.665 144.412L140.581 145.121ZM146.48 118.395L147.076 115.455L137.599 113.323L137.003 116.263L136.408 119.203L145.884 121.336L146.48 118.395ZM137.003 116.263L139.418 118.084L163.433 85.3063L161.019 83.4851L158.605 81.6638L134.589 114.442L137.003 116.263ZM161.019 83.4851L158.092 82.8265L152.615 109.849L155.542 110.508L158.469 111.167L163.946 84.1437L161.019 83.4851Z" fill="#FAFF00"/>
<path d="M145.978 95.2169L148.122 94.5971C153.277 93.1077 158.061 90.5504 162.163 87.0915C166.541 82.7589 170.007 77.5943 172.358 71.9023L173.982 67.9704L178.503 54.2203C179.274 51.8769 180.739 49.823 182.705 48.3317C183.456 47.7618 184.271 47.2812 185.133 46.8996L190.743 44.4163C191.66 44.0108 192.65 43.8014 193.652 43.8014C194.021 43.8014 194.391 43.7728 194.756 43.7159L195.828 43.5492C199.192 43.0257 202.633 43.3201 205.858 44.4077L208.088 45.1597C209.549 45.6521 210.96 46.2799 212.303 47.0349C219.755 51.2235 224.514 58.9643 224.889 67.5082L224.931 68.4643C225.185 74.2397 223.493 79.935 220.127 84.6381L219.677 85.267C216.298 89.9878 211.31 93.3115 205.654 94.612C203.906 95.0139 202.118 95.2168 200.325 95.2168L81.9484 95.2168C76.2376 95.2168 70.8762 92.4764 67.5335 87.8489L67.0168 87.1335C64.4563 83.5889 63.4842 79.1385 64.3328 74.8462C65.1414 70.7558 67.5363 67.1505 70.9938 64.8186L71.2989 64.6129C75.5543 61.7428 80.8927 60.9923 85.7704 62.5785L89.3648 63.7473C90.9423 64.2603 92.5623 63.083 92.5623 61.4235L92.5623 53.5461C92.5623 46.4207 93.9724 39.3645 96.7111 32.784C99.7596 25.5879 104.726 19.2927 111.422 15.2625C113.913 13.7635 116.335 12.4246 117.974 11.798C118.613 11.5534 119.317 11.282 120.067 10.9908C132.125 6.31364 145.691 7.55902 156.557 14.5547C160.197 16.8986 163.432 19.8196 166.134 23.2034L168.833 26.5851C171.553 29.991 173.643 33.8544 175.007 37.9945C176.048 41.1518 176.654 44.4361 176.81 47.7574L176.849 48.5748C177.011 52.0255 176.755 55.4835 176.085 58.8732L175.82 60.2093C174.944 64.6429 173.514 68.9493 171.563 73.0271L166.722 83.1502" stroke="black" stroke-width="16" stroke-linecap="round"/>
<line x1="8.5" y1="23.5" x2="58.5" y2="23.5" stroke="black" stroke-width="3" stroke-linecap="round"/>
<line x1="1.52479" y1="44.5252" x2="58.5252" y2="45.4752" stroke="black" stroke-width="3" stroke-linecap="round"/>
<line x1="12.5" y1="66.5" x2="44.5" y2="66.5" stroke="black" stroke-width="3" stroke-linecap="round"/>
</svg>
