<svg width="125" height="122" viewBox="0 0 125 122" fill="none" xmlns="http://www.w3.org/2000/svg">
<path fill-rule="evenodd" clip-rule="evenodd" d="M92.5018 96.9496C103.213 91.2699 110.414 80.6508 111.726 68.5977C112.576 60.7947 110.892 52.9254 106.925 46.153L103.981 41.1287C102.845 39.1889 102.954 36.7624 104.261 34.9329C104.894 34.0458 105.769 33.3588 106.781 32.9535L111.973 30.874C112.777 30.5522 113.634 30.3868 114.5 30.3868L125 30.3868L125 0.386823L114.5 0.386806L114.5 15.3868L114.5 0.386806C109.814 0.386803 105.17 1.28209 100.819 3.02452L95.6271 5.10401C89.2904 7.64184 83.8141 11.9431 79.847 17.498C71.6659 28.9537 70.9802 44.1474 78.0961 56.2936L81.0396 61.3178C81.7525 62.5347 82.055 63.9487 81.9024 65.3507C81.6666 67.5164 80.3728 69.4244 78.4482 70.445L41.6513 89.9559C39.0801 91.3192 36.1678 91.9052 33.2694 91.6423L29.4601 91.2967C26.8065 91.056 24.2649 90.1128 22.0966 88.564L18.2186 85.794L0.781442 110.206L4.65947 112.976C11.1641 117.622 18.789 120.452 26.7499 121.174L30.5592 121.52C39.2544 122.308 47.9913 120.551 55.7049 116.461L92.5018 96.9496Z" fill="#733F20"/>
</svg>
