<svg width="122" height="281" viewBox="0 0 122 281" fill="none" xmlns="http://www.w3.org/2000/svg">
<path d="M15.8047 0C33.0896 0.000116601 45.22 16.2626 42.5459 35.8496L39.8945 55.2686L39.8018 55.9512L39.6572 56.6299L37.8896 64.9258C37.0303 68.9604 38.8949 72.7402 42.2539 73.7725C44.3918 74.4293 46.803 73.8545 48.7461 72.2256L53.7236 68.0537C76.0487 49.3373 105.66 54.7995 117.256 79.7734C124.604 95.5985 122.876 115.823 112.787 132.081L106.659 141.958C102.032 149.415 102.706 158.955 108.229 164.174C127.238 182.137 125.58 216.929 104.72 237.799L103.108 239.411C98.5974 243.924 93.4619 247.526 87.9766 250.026L35.1865 274.089L21.6533 280.258L13.8359 251.033L27.3701 244.863L80.1611 220.801C82.2192 219.863 84.1454 218.511 85.8379 216.817L87.4492 215.206C94.7465 207.906 95.3274 195.734 88.6777 189.45C72.8886 174.53 70.9597 147.262 84.1865 125.945L90.3164 116.068C93.999 110.134 94.6294 102.751 91.9473 96.9746C87.7144 87.8587 76.9059 85.8654 68.7568 92.6973L63.7803 96.8691C54.249 104.86 42.4222 107.677 31.9355 104.455C15.4583 99.3926 6.31204 80.8541 10.5273 61.0635L12.1504 53.4404L14.708 34.709C14.9305 33.0775 13.9201 31.7232 12.4805 31.7227H0V0H15.8047Z" fill="#733F20"/>
</svg>
