<svg width="143" height="152" viewBox="0 0 143 152" fill="none" xmlns="http://www.w3.org/2000/svg">
<path fill-rule="evenodd" clip-rule="evenodd" d="M142.553 31.6951V62.689L133.669 60.3833C128.605 59.069 123.809 56.8815 119.496 53.9192L87.6204 32.0249L102.922 47.5331C121.973 66.8418 111.682 99.5959 85.0109 104.539C83.8071 104.762 82.7833 105.548 82.2576 106.654L68.9873 134.567C63.5317 146.042 51.5027 152.902 38.8484 151.754C26.6837 150.651 16.3672 142.359 12.6728 130.717L4.53682 105.077L0 90.7793L28.5949 81.7056L33.1317 96.0031L41.2677 121.643C41.3087 121.772 41.4234 121.865 41.5585 121.877C41.6991 121.89 41.8328 121.813 41.8934 121.686L55.1637 93.7731C59.8185 83.9824 68.8847 77.0165 79.5441 75.041C82.5561 74.4828 83.7182 70.784 81.5668 68.6035L63.6775 50.4725C52.3907 39.0332 52.2721 20.6844 63.4101 9.10016C73.4649 -1.35754 89.6104 -3.00342 101.569 5.21027L136.481 29.1906C137.919 30.178 139.517 30.9072 141.206 31.3453L142.553 31.6951Z" fill="#733F20"/>
</svg>
