<svg width="187" height="88" viewBox="0 0 187 88" fill="none" xmlns="http://www.w3.org/2000/svg">
<path fill-rule="evenodd" clip-rule="evenodd" d="M-1.51783e-06 85.3933L-6.29488e-07 41.8592C10.1647 31.4444 24.8767 26.4916 39.4905 28.8912L72.7639 34.3547C78.5797 35.3096 84.4158 32.7703 87.6814 27.8639L92.8676 20.0719C105.704 0.78579 131.086 -5.60274 151.523 5.30858L186.505 23.9855L172.375 50.4499L137.393 31.7729C130.581 28.1358 122.12 30.2653 117.842 36.6941L112.655 44.4861C102.859 59.2051 85.3505 66.8231 67.903 63.9582L34.6296 58.4947C29.0691 57.5817 23.466 59.8621 20.1233 64.3985L3.01601 87.6156L-1.51783e-06 85.3933Z" fill="#733F20"/>
</svg>
