<svg width="148" height="154" viewBox="0 0 148 154" fill="none" xmlns="http://www.w3.org/2000/svg">
<path fill-rule="evenodd" clip-rule="evenodd" d="M148 0.982586V31.082L139.652 31.7622C138.433 31.8615 137.242 32.1791 136.135 32.6998L124.497 38.1758L118.217 41.9573C115.868 43.3715 115.589 46.6684 117.667 48.4568C126.859 56.3684 131.145 68.5747 128.917 80.4964L128.268 83.9716C127.07 90.3827 124.328 96.4057 120.281 101.52L102.694 123.74C92.9335 136.071 77.4433 142.413 61.8374 140.466L49.4728 138.923L39.0725 138.817C36.6241 138.792 34.2978 139.885 32.7531 141.785C31.5878 143.218 30.9517 145.009 30.9517 146.856L30.9517 153.672L0.951663 153.672L0.951668 146.856C0.951673 138.115 3.96181 129.641 9.47577 122.859C16.7848 113.87 27.7924 108.701 39.3779 108.819L50.6337 108.933L51.4892 108.942L52.3381 109.048L65.5515 110.697C70.7535 111.346 75.9169 109.232 79.1704 105.121L96.757 82.9014C97.7814 81.6071 98.4753 80.0828 98.7785 78.4602L99.428 74.9851C99.6916 73.5747 99.1845 72.1306 98.097 71.1946C85.1201 60.0256 83.0176 41.8951 90.8119 28.3662L101.463 17.0639C101.881 16.7876 102.307 16.5185 102.741 16.2571L109.678 12.0796L110.336 11.6837L111.03 11.357L123.363 5.55433C127.722 3.50342 132.414 2.25253 137.216 1.86129L138.425 16.6998L137.216 1.86129L148 0.982586Z" fill="#733F20"/>
</svg>
