<svg width="169" height="114" viewBox="0 0 169 114" fill="none" xmlns="http://www.w3.org/2000/svg">
<path fill-rule="evenodd" clip-rule="evenodd" d="M169 17.5408V48.8725C161.927 49.7856 154.65 48.7028 148.034 45.6136L137.835 40.8513L137.06 40.4893L136.331 40.0416L124.984 33.0727C120.517 30.3291 114.942 30.1167 110.279 32.5124L86.1367 44.9161C83.9702 46.0293 82.1073 47.6533 80.7091 49.6477L78.5373 52.7457C76.9351 55.0313 76.1491 57.7898 76.3061 60.5767L76.3567 61.4752C77.2472 77.2851 68.8705 92.1557 55.1242 99.7333C49.3292 102.928 42.7783 104.682 36.112 104.77C33.0391 104.81 30.1412 106.207 28.1953 108.585L23.7669 113.998L0.547571 95.0018L4.97598 89.5889C12.5326 80.3524 23.7859 74.9289 35.7187 74.7725C37.4042 74.7504 39.1218 74.2984 40.6415 73.4606C44.4053 71.3858 46.6381 67.315 46.4042 63.1624L46.3535 62.2639C45.8175 52.7481 48.5013 43.329 53.9723 35.5249L56.1441 32.4269C60.3387 26.4434 65.9273 21.5714 72.4269 18.232L96.569 5.82827C110.558 -1.35884 127.283 -0.721551 140.685 7.5092L151.302 14.0304L160.726 18.4307C162.945 19.4667 165.515 19.435 167.707 18.3446C168.165 18.1168 168.598 17.8473 169 17.5408Z" fill="#733F20"/>
</svg>
