<svg width="215" height="113" viewBox="0 0 215 113" fill="none" xmlns="http://www.w3.org/2000/svg">
<path fill-rule="evenodd" clip-rule="evenodd" d="M3.31671e-06 80.8953L2.31031e-06 47.0019L2.98575 50.149C3.4866 50.6769 3.84663 50.8773 4.00975 50.9533C4.17697 51.0311 4.31531 51.0611 4.46053 51.0689C4.79654 51.0868 5.45463 50.9768 6.18154 50.4613C6.90845 49.9457 7.22983 49.361 7.32402 49.038C7.36472 48.8984 7.38214 48.7579 7.36397 48.5744C7.34625 48.3953 7.27618 47.9893 6.94357 47.3421C-6.0057 22.1435 17.2908 -6.38592 44.5693 1.26459L109.369 19.4383C123.576 23.4228 134.928 34.1192 139.748 48.0649L148.27 72.7184C151.587 82.3147 163.281 85.912 171.418 79.8394L196.529 61.1005L214.471 85.1437L189.36 103.883C164.948 122.1 129.868 111.309 119.916 82.5194L111.394 57.866C109.788 53.2174 106.004 49.652 101.268 48.3238L36.4681 30.1501C35.7656 29.953 35.3391 30.0294 35.0495 30.1285C34.6873 30.2526 34.2669 30.5202 33.908 30.9597C33.5491 31.3992 33.371 31.8646 33.3218 32.2443C33.2825 32.5479 33.293 32.981 33.6265 33.63C47.0057 59.6653 23.3203 84.269 3.31671e-06 80.8953Z" fill="#733F20"/>
</svg>
