<svg width="149" height="149" viewBox="0 0 149 149" fill="none" xmlns="http://www.w3.org/2000/svg">
<path fill-rule="evenodd" clip-rule="evenodd" d="M46.382 148.567L46.2122 148.562L19.5509 114.354L14.8746 108.354L5.6536 96.5235L8.553 94.2637C-1.19895 82.8655 -2.76724 66.5688 4.65001 53.5144C13.5404 37.8674 32.7057 31.3104 49.3176 38.2323L59.7473 42.5782C61.0514 43.1216 62.4238 43.4772 63.8234 43.6362L87.1182 15.9986C95.9761 5.48927 109.151 -0.395678 122.889 0.0206708L147.809 0.775882L148.117 0.785233L147.156 32.5113L143.532 30.66L121.981 30.0069C117.401 29.8681 113.01 31.8298 110.057 35.3329L82.0456 68.5664L77.3713 74.1121L70.1218 73.8924L64.1536 73.7115C58.6733 73.5454 53.2694 72.3792 48.2084 70.2703L37.7787 65.9244C35.1587 64.8327 32.1359 65.8669 30.7337 68.3347C29.5589 70.4024 29.8134 72.9859 31.3691 74.7846L42.7273 87.9174L46.382 92.143L46.382 97.7298L46.382 105.133L46.382 148.567Z" fill="#733F20"/>
</svg>
