<svg width="176" height="169" viewBox="0 0 176 169" fill="none" xmlns="http://www.w3.org/2000/svg">
<path fill-rule="evenodd" clip-rule="evenodd" d="M175.553 31.8835V59.543L158.35 67.1525L152.282 53.4346L144.015 34.7435C141.416 28.8688 133.289 28.331 129.939 33.8121C128.504 36.1591 126.819 38.3433 124.913 40.3261L124.624 40.6264C120.488 44.9277 120.22 51.6415 124.001 56.2585L142.605 78.9817C160.1 100.351 148.281 132.654 121.126 137.687L119.533 137.982C110.868 139.588 101.922 137.605 94.7467 132.488L86.9022 126.894C95.9936 147.245 80.2226 170.167 57.7974 168.75L53.5265 168.48L15 168.48L0 168.48L2.28074e-05 138.48L15 138.48L54 138.48H54.4735L54.9461 138.51L59.3507 138.788C46.5221 111.132 78.7626 84.2429 103.705 102.03L112.165 108.063C112.715 108.455 113.401 108.607 114.066 108.484L115.659 108.189C120.379 107.314 122.433 101.7 119.392 97.9864L100.788 75.2632C87.3845 58.8921 88.3337 35.0858 102.998 19.8338L103.287 19.5335C103.687 19.1176 104.04 18.6595 104.341 18.1673C120.312 -7.96473 159.062 -5.40072 171.45 22.6079L175.553 31.8835Z" fill="#733F20"/>
</svg>
