<svg width="85" height="152" viewBox="0 0 85 152" fill="none" xmlns="http://www.w3.org/2000/svg">
<path fill-rule="evenodd" clip-rule="evenodd" d="M20.8046 38.3047C2.9365 24.9494 15.0917 -3.39935 37.0842 0.336062L51.8724 2.84783L48.6736 21.6811L70.446 37.9547C85.0659 48.8822 80.6992 68.791 67.7827 75.9624L74.6667 83.7835C91.9113 103.375 85.583 134.029 61.9898 145.19L54.7078 148.634C34.3733 158.254 10.545 145.38 7.44586 123.099L7.04674 120.23L2.71931e-06 120.23L-1.16879e-06 90.2298L15 90.2298C25.4122 90.2298 34.2305 97.9065 35.6649 108.219L37.1598 118.966C37.4692 121.191 39.8485 122.476 41.879 121.516L49.161 118.071C54.7192 115.442 56.21 108.22 52.1475 103.605L39.3214 89.0328C22.9241 80.3592 25.2264 59.2997 37.4997 50.7833L20.8046 38.3047Z" fill="#733F20"/>
</svg>
