<svg width="192" height="400" viewBox="0 0 192 400" fill="none" xmlns="http://www.w3.org/2000/svg">
<path fill-rule="evenodd" clip-rule="evenodd" d="M-0.000366211 263.941V199.87C9.09059 195.005 20.3783 193.946 31.6594 199.076L52.4499 208.53C63.7446 213.667 75.4648 202.258 70.6349 190.829L62.6831 172.013L90.3169 160.335L98.2687 179.151C113.736 215.753 76.2021 252.288 40.0312 235.839L19.2406 226.385C13.9236 223.967 8.59772 229.726 11.4233 234.838C11.9336 235.761 12.6759 236.535 13.5769 237.084L17.4565 239.446C39.795 253.047 48.9263 280.873 38.9901 305.066L-0.000366211 399.999V321.035L11.2395 293.668C15.5699 283.125 11.5903 270.998 1.85479 265.07L-0.000366211 263.941Z" fill="#733F20"/>
<path fill-rule="evenodd" clip-rule="evenodd" d="M0 190.923V0H162C178.569 0 192 13.4315 192 30V160.923C192 177.492 178.569 190.923 162 190.923H0Z" fill="#A7CE66"/>
<path d="M134.19 24.5689C134.19 24.5689 144.534 36.4849 140.494 45.3456C139.193 48.1989 135.872 51.8937 134.42 53.4361C134.038 53.8411 133.408 53.8394 133.036 53.4255C131.429 51.6361 127.515 46.9046 127.046 42.7716C126.272 35.9463 134.19 24.5689 134.19 24.5689Z" fill="#7D9B3C"/>
<path d="M152.19 54.5689C152.19 54.5689 162.534 66.4849 158.494 75.3456C157.193 78.1989 153.872 81.8937 152.42 83.4361C152.038 83.8411 151.408 83.8394 151.036 83.4255C149.429 81.6361 145.515 76.9046 145.046 72.7716C144.272 65.9463 152.19 54.5689 152.19 54.5689Z" fill="#7D9B3C"/>
<path d="M170.19 17.5689C170.19 17.5689 180.534 29.4849 176.494 38.3456C175.193 41.1989 171.872 44.8937 170.42 46.4361C170.038 46.8411 169.408 46.8394 169.036 46.4255C167.429 44.6361 163.515 39.9046 163.046 35.7716C162.272 28.9463 170.19 17.5689 170.19 17.5689Z" fill="#7D9B3C"/>
</svg>
