<svg width="432" height="394" viewBox="0 0 432 394" fill="none" xmlns="http://www.w3.org/2000/svg">
<mask id="path-1-inside-1_695_3" fill="white">
<path fill-rule="evenodd" clip-rule="evenodd" d="M376.254 181.431C373.235 185.029 369.813 188.39 365.99 191.452C341.285 211.239 312.531 232.957 285.824 249.922C272.807 252.3 263.371 251.038 260.75 245.594C255.678 235.058 278.058 212.846 310.739 195.982C339.544 181.118 366.736 175.37 376.254 181.431Z"/>
</mask>
<path d="M376.254 181.431L377.786 182.717L379.252 180.969L377.328 179.744L376.254 181.431ZM365.99 191.452L364.739 189.891L364.739 189.891L365.99 191.452ZM285.824 249.922L286.184 251.89L286.567 251.82L286.897 251.61L285.824 249.922ZM260.75 245.594L262.552 244.727L262.552 244.727L260.75 245.594ZM310.739 195.982L309.821 194.205L309.821 194.205L310.739 195.982ZM374.722 180.146C371.787 183.643 368.46 186.911 364.739 189.891L367.24 193.013C371.167 189.868 374.683 186.415 377.786 182.717L374.722 180.146ZM364.739 189.891C340.059 209.659 311.37 231.326 284.752 248.234L286.897 251.61C313.693 234.589 342.512 212.819 367.24 193.013L364.739 189.891ZM285.465 247.955C279.07 249.123 273.708 249.365 269.708 248.717C265.662 248.062 263.446 246.584 262.552 244.727L258.948 246.462C260.675 250.049 264.487 251.924 269.069 252.666C273.697 253.415 279.561 253.099 286.184 251.89L285.465 247.955ZM262.552 244.727C261.676 242.907 261.836 240.255 263.617 236.657C265.378 233.102 268.555 228.988 272.996 224.581C281.862 215.781 295.447 206.123 311.656 197.759L309.821 194.205C293.35 202.704 279.404 212.585 270.178 221.741C265.573 226.312 262.064 230.781 260.033 234.881C258.024 238.938 257.288 243.013 258.948 246.462L262.552 244.727ZM311.656 197.759C325.937 190.39 339.772 185.306 351.157 182.813C356.852 181.566 361.88 180.98 366.015 181.057C370.191 181.135 373.247 181.888 375.179 183.118L377.328 179.744C374.501 177.944 370.589 177.142 366.09 177.058C361.549 176.973 356.195 177.615 350.301 178.906C338.51 181.488 324.345 186.71 309.821 194.205L311.656 197.759Z" fill="black" mask="url(#path-1-inside-1_695_3)"/>
<path d="M402.268 138.133C400.747 138.924 399.273 139.658 397.903 140.295C393.765 142.221 388.202 144.37 383.566 146.07C383.246 146.187 382.932 146.302 382.624 146.414L381.541 134.748C381.678 134.779 381.816 134.811 381.955 134.843C386.876 135.976 393.254 137.295 398.456 137.835C399.67 137.961 400.951 138.059 402.268 138.133Z" stroke="black" stroke-width="12"/>
<path d="M260.209 267.321L271.627 259.44C268.855 265.762 266.278 272.767 265.09 279.124C264.02 284.851 263.772 291.685 263.853 297.853C262.169 295.154 260.815 292.465 260.129 290.059C258.955 285.941 258.946 279.892 259.396 274.335C259.613 271.664 259.918 269.293 260.168 267.591C260.182 267.499 260.195 267.409 260.209 267.321Z" stroke="black" stroke-width="12"/>
<path d="M242.399 276.181L261.596 264.864C257.569 272.375 253.6 281.09 251.886 288.924C250.224 296.52 250.113 305.882 250.42 313.548C246.751 309.241 243.568 304.659 242.275 300.783C240.803 296.372 240.785 289.868 241.357 283.844C241.631 280.953 242.017 278.386 242.335 276.543C242.357 276.419 242.378 276.298 242.399 276.181Z" stroke="black" stroke-width="12"/>
<path d="M130.206 302.718C108.331 307.902 88.7219 311.793 74.4204 314.411C84.8472 306.219 98.5846 295.077 113.579 281.999C145.815 253.882 184.303 216.435 207.984 179.895C226.242 151.724 245.758 122.044 262.938 96.0725C286.859 59.9122 336.277 54.4427 366.661 84.4771C395.691 113.173 394.117 161.247 362.399 186.652C332.321 210.742 296.456 237.512 265.754 255.024C228.588 276.223 174.965 292.109 130.206 302.718Z" stroke="black" stroke-width="12"/>
<path d="M100.708 241.144C92.4289 241.13 84.6768 241.025 77.7611 240.879C83.947 238.609 90.8145 236.033 98.1016 233.212C126.501 222.215 161.597 207.353 187.523 192.12C210.017 178.904 235.611 159.535 257.62 141.634C280.234 123.242 314.349 133.022 322.198 160.313C327.759 179.647 317.607 200.057 298.875 206.668C269.843 216.913 230.145 229.666 199.207 234.966C169.98 239.973 131.806 241.199 100.708 241.144Z" stroke="black" stroke-width="12"/>
<path d="M348.355 120.362C345.656 119.251 342.525 116.374 339.599 112.876C339.756 112.892 339.914 112.909 340.072 112.926C343.23 113.275 346.425 113.891 349.193 114.889C352.002 115.902 353.959 117.162 355.124 118.536C355.74 119.262 356.427 120.348 357.122 121.657C356.918 121.655 356.713 121.651 356.506 121.645C353.2 121.56 350.255 121.144 348.355 120.362Z" stroke="black" stroke-width="12"/>
<path d="M381.5 131C381.5 139.008 379.5 160.5 374.5 156C371.739 156 369.553 146.508 369.553 138.5C369.553 130.492 371.792 124 374.553 124C377.315 124 381.5 122.992 381.5 131Z" fill="#EBEE3C"/>
<path d="M256.5 227.5L273 221.5L279 219.709L269 246L266 248L265 248.5L262.5 250L261 249.5L256.5 227.5Z" fill="#EBEE3C"/>
<circle cx="335" cy="207" r="44" stroke="black" stroke-width="12"/>
<path d="M368.5 252.5L376.5 261.5L382.5 268L389.5 275.5L394.037 280.083C396.253 282.322 399.272 283.581 402.422 283.581L403.435 283.581C406.817 283.581 409.968 281.862 411.797 279.018V279.018C414.389 274.989 413.739 269.686 410.253 266.402L403.321 259.871L380.687 241.289" stroke="black" stroke-width="8"/>
<ellipse cx="335" cy="207.5" rx="38" ry="39.5" fill="#EBEE3C"/>
<path d="M323.5 183.266L323.096 184.121C322.036 186.365 320.705 188.471 319.134 190.392V190.392C317.716 192.125 316.11 193.697 314.347 195.078L309 199.266" stroke="black" stroke-width="13" stroke-linecap="round"/>
<path d="M353.322 195V195C343.388 205.927 331.737 215.158 318.829 222.33L315.822 224" stroke="black" stroke-width="14" stroke-linecap="round"/>
</svg>
