<svg width="152" height="228" viewBox="0 0 152 228" fill="none" xmlns="http://www.w3.org/2000/svg">
<path d="M151.65 108.835C151.65 156.631 69.9965 216.519 69.9965 216.519C69.9965 216.519 5.93864 169.908 0.00217605 116.642C-0.286266 114.054 31.3536 133.333 31.3536 130.718C31.3536 128.213 -0.286468 103.834 0.00217605 101.349C2.23675 82.1146 12.7192 63.6092 25.2295 47.7954C26.7818 45.8332 56.5507 59.4604 58.1536 57.5848C59.6652 55.8161 33.0086 38.5396 34.5446 36.8543C54.7607 14.674 76.2296 0 76.2296 0C76.2296 0 111.72 28.7236 134.01 62.1916C134.773 63.3381 103.548 78.8863 104.278 80.0429C105.124 81.3809 137.919 68.3289 138.714 69.6777C140.963 73.4906 143.001 77.3408 144.759 81.1946C145.204 82.1706 132.542 94.615 132.951 95.5908C133.426 96.727 146.965 86.3945 147.388 87.529C150.078 94.7581 151.65 101.935 151.65 108.835Z" fill="url(#paint0_linear_422_22)"/>
<path d="M76.7918 15.7807L77.5126 68.7588L98.6077 48.0283L77.5126 76.2446L77.5126 170.108L125.41 134.405L77.5126 177.018L77.5126 226.832L59.1636 226.467L68.0842 124.04L34.4068 86.6101L68.7361 116.554L76.7918 15.7807Z" fill="#603F14"/>
<defs>
<linearGradient id="paint0_linear_422_22" x1="76.0437" y1="4.60679" x2="-1.08114" y2="178.674" gradientUnits="userSpaceOnUse">
<stop offset="0.0833333" stop-color="#FF9000"/>
<stop offset="0.56313" stop-color="#FF0016"/>
<stop offset="0.633645" stop-color="#FF002B"/>
<stop offset="0.822917" stop-color="#D30043"/>
</linearGradient>
</defs>
</svg>
