<svg width="50" height="50" viewBox="0 0 50 50" fill="none" xmlns="http://www.w3.org/2000/svg">
<rect width="50" height="50" rx="10" fill="#EFEFEF"/>
<path d="M39.9075 18.2023C39.9075 18.2023 41.4719 18.6176 42.4981 18.7218C43.5716 18.8308 45.2609 18.7218 45.2609 18.7218C45.2609 18.7218 43.6996 19.6814 42.6352 20.1655C41.7027 20.5896 40.1817 21.0897 40.1817 21.0897L39.9075 18.2023Z" fill="url(#paint0_linear_1848_26)"/>
<path d="M27.1214 32.4543C27.1214 32.4543 26.7676 34.2684 27.0845 35.355C27.4259 36.5251 28.8553 37.9144 28.8553 37.9144C28.8553 37.9144 28.5801 35.5999 28.8553 34.1606C29.1841 32.441 30.6629 30.0655 30.6629 30.0655L27.1214 32.4543Z" fill="#48541F"/>
<path d="M25.2387 33.3445C25.2387 33.3445 24.7884 35.3164 25.1918 36.4975C25.6262 37.7694 27.4454 39.2794 27.4454 39.2794C27.4454 39.2794 27.0951 36.7636 27.4454 35.1992C27.8638 33.3301 29.7459 30.748 29.7459 30.748L25.2387 33.3445Z" fill="#63732C"/>
<path d="M5.46157 38.7676C5.46157 38.7676 16.6856 30.8192 21.625 23.371C23.5862 20.4137 25.6834 17.2971 27.5241 14.5781C30.2735 10.5168 35.9551 9.92577 39.4635 13.3149C42.8207 16.5581 42.6818 22.0169 38.9986 24.9011C35.7843 27.4183 31.9212 30.2399 28.5978 32.0924C20.5171 36.5967 5.46157 38.7676 5.46157 38.7676Z" fill="#23260A"/>
<path d="M34.9232 16.1002C34.9232 16.1002 37.403 15.9008 38.2981 16.9321C38.3508 16.9928 38.4019 17.0624 38.4509 17.137C38.7965 17.6638 38.383 18.3128 37.7553 18.2749C37.4389 18.2558 37.1144 18.2068 36.8554 18.1027C35.8516 17.6991 34.9232 16.1002 34.9232 16.1002Z" fill="#FFF495"/>
<path d="M33.0884 25.3938C36.1559 23.8469 39.0511 23.2499 40.064 23.8811C39.749 24.2462 39.3959 24.5904 38.9985 24.9016C36.3633 26.9652 33.2913 29.2321 30.439 31.0032C29.0507 31.2517 28.0446 31.1239 27.7651 30.5569C27.225 29.4605 29.6085 27.1487 33.0884 25.3938Z" fill="#F2CB05"/>
<path d="M4.86894 30.5774C4.86894 30.5774 14.2281 27.5668 19.6549 24.4509C22.0459 23.078 24.7912 21.043 27.154 19.1599C29.8458 17.0147 33.9415 18.1778 34.9111 21.4725C35.598 23.8066 34.3799 26.2851 32.0795 27.0796C28.9805 28.1499 24.6794 29.5052 21.3084 30.0695C14.9716 31.1305 4.86894 30.5774 4.86894 30.5774Z" fill="#D2D904"/>
<defs>
<linearGradient id="paint0_linear_1848_26" x1="45.5982" y1="17.7802" x2="39.8538" y2="19.4501" gradientUnits="userSpaceOnUse">
<stop stop-color="#F23005"/>
<stop offset="1" stop-color="#F2CB05"/>
</linearGradient>
</defs>
</svg>
