<svg width="748" height="793" viewBox="0 0 748 793" fill="none" xmlns="http://www.w3.org/2000/svg">
<path d="M573 355C573 493.071 461.071 605 323 605C184.929 605 73 493.071 73 355C73 216.929 184.929 105 323 105C461.071 105 573 216.929 573 355Z" fill="#2C31A5"/>
<path d="M623 263C623 345.843 555.843 413 473 413C390.157 413 323 345.843 323 263C323 180.157 390.157 113 473 113C555.843 113 623 180.157 623 263Z" fill="#FFB800" fill-opacity="0.81"/>
<path d="M413 297C413 393.65 334.65 472 238 472C141.35 472 63 393.65 63 297C63 200.35 141.35 122 238 122C334.65 122 413 200.35 413 297Z" fill="#360061" fill-opacity="0.71"/>
<path d="M573 468C573 537.036 517.036 593 448 593C378.964 593 323 537.036 323 468C323 398.964 378.964 343 448 343C517.036 343 573 398.964 573 468Z" fill="#C32727" fill-opacity="0.87"/>
<path d="M748 378C748 397.33 732.33 413 713 413C693.67 413 678 397.33 678 378C678 358.67 693.67 343 713 343C732.33 343 748 358.67 748 378Z" fill="#252EFF" fill-opacity="0.78"/>
<path d="M637 433C637 444.046 628.046 453 617 453C605.954 453 597 444.046 597 433C597 421.954 605.954 413 617 413C628.046 413 637 421.954 637 433Z" fill="#C32727" fill-opacity="0.82"/>
<path d="M40 358C40 369.046 31.0457 378 20 378C8.95431 378 0 369.046 0 358C0 346.954 8.95431 338 20 338C31.0457 338 40 346.954 40 358Z" fill="#360061" fill-opacity="0.77"/>
<path d="M103 555C103 566.046 94.0457 575 83 575C71.9543 575 63 566.046 63 555C63 543.954 71.9543 535 83 535C94.0457 535 103 543.954 103 555Z" fill="#FFB800" fill-opacity="0.62"/>
<path d="M348 30C348 46.5685 334.569 60 318 60C301.431 60 288 46.5685 288 30C288 13.4315 301.431 -3.09505e-06 318 -3.09505e-06C334.569 -3.09505e-06 348 13.4315 348 30Z" fill="#C32727" fill-opacity="0.81"/>
<path d="M428.267 293.603C428.267 293.603 438.469 296.641 445.162 297.404C452.163 298.201 463.18 297.404 463.18 297.404C463.18 297.404 452.998 304.425 446.056 307.967C439.974 311.07 430.055 314.73 430.055 314.73L428.267 293.603Z" fill="url(#paint0_linear_406_32)"/>
<path d="M344.878 397.885C344.878 397.885 342.57 411.159 344.637 419.11C346.863 427.672 356.185 437.837 356.185 437.837C356.185 437.837 354.39 420.901 356.185 410.37C358.33 397.788 367.974 380.406 367.974 380.406L344.878 397.885Z" fill="#48541F"/>
<path d="M332.601 404.4C332.601 404.4 329.664 418.828 332.294 427.47C335.128 436.776 346.992 447.826 346.992 447.826C346.992 447.826 344.707 429.417 346.992 417.97C349.721 404.294 361.995 385.401 361.995 385.401L332.601 404.4Z" fill="#63732C"/>
<path d="M203.619 444.08C203.619 444.08 276.819 385.921 309.032 331.422C321.313 310.647 334.41 288.797 346.06 269.479C364.631 238.684 402.877 233.461 425.901 258.415V258.415C447.571 281.903 446.034 321.849 421.438 343.409C400.657 361.625 375.872 381.876 354.508 395.237C301.807 428.195 203.619 444.08 203.619 444.08Z" fill="#23260A"/>
<path d="M395.76 278.221C395.76 278.221 411.933 276.762 417.77 284.308C419.586 286.656 421.114 290.797 421.775 292.756C421.97 293.332 421.61 293.914 421.019 293.975C418.505 294.235 412.281 294.642 408.361 292.874C401.815 289.92 395.76 278.221 395.76 278.221Z" fill="#FFF495"/>
<path fill-rule="evenodd" clip-rule="evenodd" d="M429.177 335.071C426.918 338.068 424.339 340.866 421.438 343.409C404.446 358.303 384.777 374.559 366.489 387.296C357.449 389.107 350.895 388.146 349.075 384.001C345.553 375.978 361.095 359.065 383.789 346.225C403.685 334.968 422.472 330.578 429.177 335.071Z" fill="#F2CB05"/>
<path d="M199.754 384.152C199.754 384.152 260.792 362.123 296.183 339.324C310.471 330.12 326.698 316.848 341.169 304.091C360.295 287.231 389.624 294.442 395.936 318.503V318.503C400.281 335.068 391.52 353.055 375.491 359.223C355.43 366.943 328.334 376.422 306.968 380.436C265.64 388.199 199.754 384.152 199.754 384.152Z" fill="#D2D904"/>
<path d="M178.02 729.44C176.633 729.267 175.333 729.18 174.12 729.18C172.993 729.093 172.213 729.05 171.78 729.05C171.433 728.963 171.26 728.79 171.26 728.53C170.653 725.757 170.22 723.33 169.96 721.25C169.7 719.083 169.527 717.09 169.44 715.27C169.353 712.67 169.137 710.113 168.79 707.6C168.53 705 167.923 701.577 166.97 697.33C162.117 698.11 158.867 698.5 157.22 698.5C155.487 698.5 154.187 698.197 153.32 697.59C152.453 696.897 152.02 695.813 152.02 694.34C152.02 693.473 152.497 693.04 153.45 693.04L157.35 692.65C157.957 692.563 160.73 692.217 165.67 691.61C165.497 689.097 165.15 683.94 164.63 676.14C164.37 669.9 163.98 664.917 163.46 661.19L147.21 662.62C145.997 663.4 145.043 663.79 144.35 663.79C143.31 663.01 142.66 662.013 142.4 660.8C144.48 658.547 149.463 656.683 157.35 655.21C165.323 653.737 173.947 653 183.22 653C194.833 653 204.8 654.257 213.12 656.77C221.44 659.197 225.947 662.967 226.64 668.08C223.953 668.08 221.353 667.777 218.84 667.17C216.327 666.563 213.163 665.653 209.35 664.44C204.497 662.793 200.033 661.537 195.96 660.67C191.973 659.803 187.467 659.37 182.44 659.37C179.233 659.37 175.723 659.63 171.91 660.15C171.91 668.21 172.127 678.393 172.56 690.7L177.11 690.31C190.977 689.183 199.08 688.62 201.42 688.62C202.547 688.62 203.327 688.707 203.76 688.88C204.193 688.967 204.54 689.14 204.8 689.4C204.887 692 202.417 693.863 197.39 694.99C192.363 696.03 184.39 696.767 173.47 697.2C173.903 701.447 174.727 706.993 175.94 713.84C177.067 720.253 177.76 725.453 178.02 729.44ZM241.647 730.09C239.74 720.643 238.267 709.463 237.227 696.55C236.274 683.55 235.797 670.983 235.797 658.85C235.797 652.783 235.927 647.41 236.187 642.73C236.187 641.603 237.054 641.04 238.787 641.04C240.174 641.04 241.04 641.387 241.387 642.08C241.82 642.773 242.037 643.857 242.037 645.33C242.037 659.37 242.297 671.373 242.817 681.34C243.337 691.22 244.03 701.88 244.897 713.32C245.417 720.687 245.764 725.67 245.937 728.27C246.024 729.657 245.287 730.35 243.727 730.35C243.207 730.35 242.514 730.263 241.647 730.09ZM291.953 792.49C286.059 792.49 280.773 791.233 276.093 788.72C271.499 786.207 267.816 783.303 265.043 780.01C262.269 776.717 260.709 774.03 260.363 771.95C260.016 770.043 260.449 768.57 261.663 767.53C262.963 766.49 264.566 766.057 266.473 766.23C269.159 772.643 272.366 777.583 276.093 781.05C279.819 784.517 285.149 786.337 292.083 786.51C296.936 786.597 300.793 783.477 303.653 777.15C306.599 770.91 308.679 763.24 309.893 754.14C311.106 745.127 311.713 736.243 311.713 727.49C311.713 722.983 311.583 719.3 311.323 716.44C304.736 724.5 296.329 728.53 286.103 728.53C277.263 728.53 270.459 724.327 265.693 715.92C261.013 707.513 257.979 698.023 256.593 687.45C256.419 686.41 256.333 684.937 256.333 683.03C256.333 677.57 258.109 674.84 261.663 674.84C262.009 674.84 262.486 677.007 263.093 681.34C264.046 688.187 265.216 694.34 266.603 699.8C267.989 705.26 270.286 710.243 273.493 714.75C276.786 719.17 281.119 721.38 286.493 721.38C290.739 721.38 295.073 719.993 299.493 717.22C303.999 714.36 307.249 711.197 309.243 707.73C309.243 701.143 308.376 695.25 306.643 690.05C304.996 684.763 304.129 681.947 304.043 681.6C303.869 679.693 303.783 678.48 303.783 677.96C303.783 676.227 304.043 674.97 304.563 674.19C305.169 673.41 306.036 673.02 307.163 673.02C308.376 673.02 309.763 675.49 311.323 680.43C312.883 685.37 314.269 691.827 315.483 699.8C316.696 707.773 317.519 716.093 317.953 724.76C318.126 729.267 318.213 732.603 318.213 734.77C318.213 751.41 316.133 765.19 311.973 776.11C307.899 787.03 301.226 792.49 291.953 792.49ZM359.249 731C353.702 731 348.589 729.917 343.909 727.75C339.229 725.583 335.502 722.507 332.729 718.52C329.956 714.533 328.569 709.94 328.569 704.74C328.569 698.933 329.652 693.517 331.819 688.49C333.986 683.377 337.149 679.303 341.309 676.27C345.556 673.15 350.496 671.59 356.129 671.59C362.022 671.59 366.486 673.497 369.519 677.31C372.552 681.037 373.982 685.76 373.809 691.48C373.809 696.593 371.772 700.493 367.699 703.18C363.712 705.867 358.599 707.21 352.359 707.21C351.406 707.21 349.976 707.123 348.069 706.95C344.949 706.603 342.739 706.127 341.439 705.52C340.139 704.913 339.489 703.7 339.489 701.88C339.489 701.273 339.662 700.84 340.009 700.58C340.356 700.233 341.049 700.06 342.089 700.06C343.216 700.06 345.209 700.32 348.069 700.84C350.842 701.36 353.312 701.62 355.479 701.62C363.452 701.62 367.439 698.153 367.439 691.22C367.439 687.06 366.659 683.767 365.099 681.34C363.626 678.913 360.982 677.7 357.169 677.7C353.009 677.7 349.282 678.827 345.989 681.08C342.696 683.247 340.139 686.107 338.319 689.66C336.586 693.213 335.719 696.983 335.719 700.97C335.719 707.817 337.626 713.45 341.439 717.87C345.252 722.203 351.146 724.37 359.119 724.37C360.072 724.37 361.676 724.283 363.929 724.11C364.882 724.023 366.052 723.763 367.439 723.33C368.826 722.897 369.822 722.593 370.429 722.42C374.156 721.12 376.886 720.47 378.619 720.47C379.919 720.47 380.916 720.817 381.609 721.51C379.442 724.803 376.192 727.23 371.859 728.79C367.612 730.263 363.409 731 359.249 731ZM398.281 731C394.727 724.067 391.911 715.92 389.831 706.56C387.837 697.2 386.841 689.097 386.841 682.25C386.841 679.563 387.447 677.83 388.661 677.05C389.354 676.617 389.874 676.4 390.221 676.4C390.827 676.4 391.261 676.877 391.521 677.83C391.867 678.783 392.214 680.517 392.561 683.03L393.211 687.71C394.164 683.03 395.984 679.347 398.671 676.66C401.444 673.887 404.824 672.5 408.811 672.5C413.231 672.5 416.524 673.367 418.691 675.1C420.857 676.747 421.941 679.52 421.941 683.42C417.607 681.34 413.664 680.3 410.111 680.3C406.731 680.3 403.827 681.21 401.401 683.03C398.974 684.85 397.284 687.537 396.331 691.09C395.551 693.517 395.161 695.813 395.161 697.98C395.161 700.32 395.464 702.53 396.071 704.61C396.764 706.603 397.804 709.073 399.191 712.02C400.491 715.053 401.487 717.653 402.181 719.82C402.961 721.987 403.394 724.327 403.481 726.84C403.481 728.313 402.961 729.397 401.921 730.09C400.881 730.697 399.667 731 398.281 731ZM449.315 730.87C445.241 730.87 441.688 729.483 438.655 726.71C435.708 723.937 433.455 720.34 431.895 715.92C430.421 711.5 429.685 706.907 429.685 702.14C429.685 693.82 431.418 686.8 434.885 681.08C438.438 675.36 443.811 672.5 451.005 672.5C455.338 672.5 459.108 673.28 462.315 674.84C465.608 676.313 469.898 678.827 475.185 682.38L478.565 684.72C478.131 681.86 477.481 678.567 476.615 674.84C475.748 671.113 475.185 668.557 474.925 667.17C473.451 660.41 472.368 655.383 471.675 652.09C471.068 648.71 470.765 645.72 470.765 643.12C470.765 638.527 472.065 636.23 474.665 636.23C475.618 638.31 476.745 642.773 478.045 649.62C479.345 656.38 480.991 665.653 482.985 677.44C485.065 689.92 486.885 700.103 488.445 707.99C490.005 715.877 491.305 720.817 492.345 722.81C492.345 724.803 490.871 725.8 487.925 725.8C485.671 725.8 484.111 724.5 483.245 721.9C482.465 719.3 481.988 714.75 481.815 708.25H480.775C477.135 714.837 472.411 720.253 466.605 724.5C460.798 728.747 455.035 730.87 449.315 730.87ZM451.005 724.5C454.558 724.5 458.371 723.027 462.445 720.08C466.605 717.047 470.115 713.407 472.975 709.16C475.835 704.827 477.265 700.927 477.265 697.46V693.56C468.338 684.2 460.105 679.52 452.565 679.52C447.278 679.52 443.205 681.47 440.345 685.37C437.485 689.183 436.055 694.21 436.055 700.45L436.185 703.18C436.705 709.767 438.178 714.967 440.605 718.78C443.031 722.593 446.498 724.5 451.005 724.5Z" fill="#3A3535"/>
<defs>
<linearGradient id="paint0_linear_406_32" x1="465.38" y1="290.514" x2="427.307" y2="300.379" gradientUnits="userSpaceOnUse">
<stop stop-color="#F23005"/>
<stop offset="1" stop-color="#F2CB05"/>
</linearGradient>
</defs>
</svg>
