<svg width="50" height="50" viewBox="0 0 50 50" fill="none" xmlns="http://www.w3.org/2000/svg">
<rect width="50" height="50" rx="25" fill="#EFEFEF"/>
<path d="M40.4373 18.5923C40.4373 18.5923 41.8656 18.9569 42.8026 19.0484C43.7828 19.1441 45.3252 19.0484 45.3252 19.0484C45.3252 19.0484 43.8997 19.891 42.9278 20.316C42.0764 20.6884 40.6876 21.1276 40.6876 21.1276L40.4373 18.5923Z" fill="url(#paint0_linear_1848_27)"/>
<path d="M28.763 31.1062C28.763 31.1062 28.4399 32.6991 28.7293 33.6532C29.041 34.6806 30.3461 35.9005 30.3461 35.9005C30.3461 35.9005 30.0948 33.8682 30.3461 32.6044C30.6463 31.0945 31.9965 29.0087 31.9965 29.0087L28.763 31.1062Z" fill="#48541F"/>
<path d="M27.044 31.8879C27.044 31.8879 26.6329 33.6193 27.0012 34.6563C27.3978 35.7731 29.0588 37.099 29.0588 37.099C29.0588 37.099 28.739 34.89 29.0588 33.5164C29.4408 31.8752 31.1592 29.608 31.1592 29.608L27.044 31.8879Z" fill="#63732C"/>
<path d="M8.98665 36.6496C8.98665 36.6496 19.2347 29.6705 23.7445 23.1307C25.5593 20.499 27.5016 17.7238 29.1984 15.3139C31.6785 11.7914 36.8103 11.3081 40.0066 14.2774C43.0825 17.1349 42.9856 21.9282 39.6499 24.4422C36.7067 26.6604 33.1601 29.154 30.1111 30.7884C22.733 34.7434 8.98665 36.6496 8.98665 36.6496Z" fill="#23260A"/>
<path d="M35.8865 16.7465C35.8865 16.7465 38.1506 16.5714 38.9679 17.477C38.9816 17.4922 38.9952 17.508 39.0086 17.5243C39.4131 18.0161 38.9705 18.7024 38.3336 18.6459C38.0903 18.6242 37.8493 18.5816 37.6506 18.5048C36.7341 18.1504 35.8865 16.7465 35.8865 16.7465Z" fill="#FFF495"/>
<path d="M34.2107 24.9073C37.0185 23.5456 39.668 23.0222 40.5867 23.5831C40.3089 23.8905 39.9984 24.18 39.6501 24.4425C37.2349 26.2627 34.4131 28.2679 31.7937 29.8321C30.5254 30.0507 29.6056 29.9385 29.3503 29.4405C28.8572 28.4778 31.0335 26.4482 34.2107 24.9073Z" fill="#F2CB05"/>
<path d="M8.44562 29.4582C8.44562 29.4582 16.9909 26.8148 21.9458 24.0789C24.1881 22.8407 26.7716 20.9892 28.9675 19.299C31.3535 17.4623 34.9782 18.5317 35.8638 21.4257C36.4971 23.4952 35.425 25.6762 33.3728 26.3595C30.5374 27.3034 26.5636 28.5119 23.4556 29.0123C17.6698 29.9438 8.44562 29.4582 8.44562 29.4582Z" fill="#D2D904"/>
<defs>
<linearGradient id="paint0_linear_1848_27" x1="45.6331" y1="18.2217" x2="40.4212" y2="19.7971" gradientUnits="userSpaceOnUse">
<stop stop-color="#F23005"/>
<stop offset="1" stop-color="#F2CB05"/>
</linearGradient>
</defs>
</svg>
