<svg width="91" height="115" viewBox="0 0 91 115" fill="none" xmlns="http://www.w3.org/2000/svg">
<path d="M56.9271 1.01025C55.4612 2.93454 52.9754 6.85526 52.3062 8.29848C49.693 14.0954 48.6095 17.8958 47.1116 26.2905C46.2512 31.2456 45.9006 45.0042 46.5061 50.753C46.793 53.3508 46.9204 58.1134 46.8567 64.6319C46.793 74.6382 47.0798 79.1362 47.9402 81.4213L48.3864 82.6239L48.1633 81.0605C47.7809 78.3183 48.004 65.5219 48.5457 59.5325C48.8325 56.3575 49.4062 51.5468 49.8523 48.8287C50.2666 46.1106 50.9996 41.2518 51.4457 38.0046C51.9238 34.7574 52.4018 31.2456 52.5611 30.1872C52.9436 27.7097 53.4853 22.6825 53.7084 19.6277L53.8996 17.2464L54.9194 18.6656C58.0744 23.0674 61.5799 26.0981 69.4514 31.2696C79.3306 37.74 84.3658 42.8394 86.3735 48.4438L86.979 50.1516L86.7878 48.7325C86.3735 45.6296 84.2702 41.0594 81.7526 37.8362C80.2866 35.936 77.0679 32.6407 75.3789 31.2937C73.9448 30.1391 73.9448 30.1391 76.4624 31.1253C82.3899 33.4825 88.0625 37.6919 90.1021 41.2518C90.8988 42.671 90.9944 42.4305 90.3252 40.6986C89.6878 39.087 88.0625 37.0184 85.7361 34.8295C83.4735 32.6888 82.9954 32.352 78.4064 29.7302C73.6899 27.0362 64.7667 20.6139 62.3447 18.1604C60.0183 15.8032 58.2018 13.1092 57.2777 10.6557C56.2897 8.08199 56.2897 3.43966 57.2777 1.37105C57.6601 0.625395 57.8832 2.51271e-06 57.8194 2.51271e-06C57.7557 2.51271e-06 57.3733 0.45702 56.9271 1.01025Z" fill="black"/>
<path d="M46.1874 7.02362C43.861 11.257 41.5027 19.5315 40.706 26.2184C40.1324 31.2455 41.1203 54.0964 42.2038 60.1339C42.4588 61.6492 42.9049 64.247 43.1599 65.9067C43.4467 67.5664 43.7973 69.7312 43.9885 70.7174C44.1797 71.7036 44.4346 74.566 44.5302 77.0916L44.7214 81.6618L45.1039 79.497C45.8368 75.5281 46.283 68.9856 46.0918 65.0648C45.9643 62.9481 45.7412 54.8902 45.5819 47.1449C45.4225 39.3997 45.1676 29.1769 45.0401 24.4143C44.7852 14.2878 45.0401 11.7141 46.6654 7.52875C47.239 5.96527 47.6852 4.66637 47.6533 4.61827C47.5896 4.59421 46.9204 5.67662 46.1874 7.02362Z" fill="black"/>
<path d="M45.4226 82.2872C45.1358 83.8988 44.6897 85.5585 44.4666 85.9914L44.0204 86.7852L41.3754 86.1838C37.8698 85.3901 33.0577 85.342 28.6599 86.0636C27.0027 86.3282 25.3456 86.6168 24.995 86.713C24.5807 86.8092 24.6445 86.7371 25.1544 86.5206C26.1741 86.0636 31.0181 85.1495 32.3566 85.1495C32.9302 85.1495 33.5039 85.0293 33.5995 84.909C34.0775 84.3317 25.8555 84.7887 22.3499 85.5344C19.9598 86.0395 15.6257 88.036 12.7257 89.9843C7.69049 93.3277 4.05749 98.9322 4.12123 103.262C4.1531 104.128 4.2487 103.959 4.88607 102.083C5.77838 99.5095 6.51136 98.3309 8.61467 96.1901C10.0487 94.7229 12.7576 92.6061 13.2356 92.6061C13.3312 92.6061 12.6301 93.2796 11.6422 94.0734C8.51906 96.6952 5.81025 101.578 5.07728 105.86C4.79047 107.736 4.69486 111.007 4.98168 109.684C6.00146 105.114 8.77401 100.688 12.5026 97.7055C18.0158 93.3037 29.6159 87.8916 35.7028 86.9295C38.0929 86.5446 42.8413 86.6168 43.4149 87.0498C43.5743 87.17 43.4468 87.603 43.1919 88.0119C42.7138 88.6854 42.5226 88.7576 41.1523 88.7576C38.7621 88.7576 32.0698 89.6716 29.8709 90.297C27.0027 91.1148 24.2302 92.1972 22.4137 93.2315C19.3543 94.9874 15.4982 97.7777 13.7136 99.5576C9.69819 103.526 8.23225 105.667 8.29599 107.399L8.32785 108.121L8.55093 107.399C9.02896 105.956 10.2718 104.561 12.8213 102.54C17.251 99.0525 26.4928 94.0734 32.4841 91.9326C36.0852 90.6578 41.6622 89.1184 41.9809 89.3349C42.1402 89.4792 40.1325 91.5959 39.272 92.1732C38.9534 92.3656 37.5511 92.7264 36.1489 92.9669C29.8709 94.0012 27.0346 94.9634 23.1148 97.3687C20.0873 99.2449 16.0719 102.733 14.4784 104.873C14.3191 105.066 14.9883 104.633 15.9444 103.863C18.1114 102.204 24.517 99.0044 30.3808 96.7193C32.8028 95.7572 34.683 95.0837 34.5874 95.2039C34.4918 95.3242 33.3127 95.9977 31.9423 96.7193C28.8192 98.3309 20.2785 103.671 20.5016 103.839C20.5972 103.911 20.8521 103.863 21.0752 103.743C21.2983 103.623 23.2104 102.829 25.3137 102.011L29.1379 100.52L26.6203 102.348C20.6609 106.702 11.4828 110.31 3.19705 111.608C1.57176 111.849 0.137683 112.138 0.0102099 112.234C-0.276605 112.474 5.55531 112.09 7.94543 111.729C11.7696 111.103 18.6532 109.059 23.2423 107.159C28.5643 104.946 34.7786 101.65 37.1687 99.75C39.5589 97.8498 43.893 93.0872 45.0721 91.0427C45.8688 89.6716 46.7611 86.9295 46.8886 85.5103C46.9842 84.1874 46.4743 79.6413 46.1875 79.497C46.0919 79.4489 45.7413 80.6996 45.4226 82.2872Z" fill="black"/>
<path d="M47.3665 93.0151C46.6017 93.9291 45.7731 94.9153 45.5819 95.2039C45.1357 95.8293 40.7698 99.8463 38.7302 101.482C36.8499 102.973 31.9741 105.691 27.385 107.808C22.2224 110.165 22.063 110.237 16.0718 111.993C10.3355 113.701 10.5267 113.966 16.6454 112.931C21.6169 112.065 23.752 111.512 28.2455 109.901C32.6115 108.361 36.3401 106.485 39.1445 104.44C41.2797 102.853 45.7094 97.5852 47.1434 94.9393C47.6215 93.9772 48.2907 92.7986 48.5456 92.2935C48.8325 91.8124 48.9918 91.4035 48.9281 91.4035C48.8643 91.4035 48.1632 92.1251 47.3665 93.0151Z" fill="black"/>
<path d="M45.2314 102.516C41.3434 107.086 33.8225 110.887 22.1268 114.182L19.2587 115L22.4455 114.88C28.1499 114.663 34.3324 113.1 38.061 110.959C40.0687 109.78 43.3512 106.846 44.594 105.066C45.5182 103.767 46.9204 101.025 46.7611 100.881C46.6973 100.857 46.0281 101.578 45.2314 102.516Z" fill="black"/>
</svg>
