<svg width="65" height="60" viewBox="0 0 65 60" fill="none" xmlns="http://www.w3.org/2000/svg">
<path d="M56.391 19.3205C56.391 19.3205 58.6015 19.9282 60.0516 20.0807C61.5686 20.2403 63.9556 20.0807 63.9556 20.0807C63.9556 20.0807 61.7495 21.485 60.2454 22.1934C58.9277 22.8141 56.7785 23.546 56.7785 23.546L56.391 19.3205Z" fill="url(#paint0_linear_338_110)"/>
<path d="M39.9868 38.8577C39.9868 38.8577 40.1144 39.983 39.9868 40.9086C39.569 43.9387 37 47 37 47C37 47 40.4478 44.2675 42.6802 41.2538C44.3096 39.0542 46 35 46 35L39.9868 38.8577Z" fill="#48541F"/>
<path d="M35.6634 41.4798C35.6634 41.4798 35.7986 42.5883 35.6634 43.5C35.2209 46.4846 32.5 49.5 32.5 49.5C32.5 49.5 36.1517 46.8085 38.5161 43.84C40.2418 41.6734 42.0322 37.68 42.0322 37.68L35.6634 41.4798Z" fill="#63732C"/>
<path d="M7.71744 49.416C7.71744 49.416 23.5775 37.7842 30.557 26.8845C33.2946 22.6093 36.2196 18.1069 38.7976 14.1624C42.7246 8.15364 50.8317 7.23395 55.7987 12.2033C60.5279 16.9346 60.2898 24.9231 55.0475 29.1717C50.5173 32.8431 45.0856 36.9482 40.41 39.6474C28.9916 46.2391 7.71744 49.416 7.71744 49.416Z" fill="#23260A"/>
<path d="M49.348 16.2442C49.348 16.2442 52.852 15.9524 54.1168 17.4616C54.2987 17.6787 54.4673 17.9725 54.6101 18.2643C54.8844 18.8245 54.4993 19.4398 53.8805 19.4417C53.2895 19.4435 52.5924 19.3888 52.0782 19.1747C50.6598 18.584 49.348 16.2442 49.348 16.2442Z" fill="#FFF495"/>
<path fill-rule="evenodd" clip-rule="evenodd" d="M56.6091 27.6272C56.1502 28.1817 55.6297 28.6998 55.0474 29.1717C51.3349 32.1805 47.017 35.4804 43.0058 38.0592C41.0473 38.4213 39.6275 38.2292 39.2331 37.4002C38.4699 35.7957 41.8374 32.4131 46.7546 29.845C51.0856 27.583 55.1743 26.7074 56.6091 27.6272Z" fill="#F2CB05"/>
<path d="M6.70945 33.4228C6.70945 33.4228 19.777 20.4461 30.4639 18.3903C34.4455 17.6243 39.7736 18.0516 43.5856 18.5536C46.5168 18.9397 48.7238 21.2503 49.2253 24.1874C50.1584 29.6519 44.9592 34.3938 39.5824 33.2707C34.8469 32.2816 29.4634 31.4144 25.0353 31.3818C17.8554 31.329 6.70945 33.4228 6.70945 33.4228Z" fill="#D2D904"/>
<defs>
<linearGradient id="paint0_linear_338_110" x1="64.4322" y1="18.7028" x2="56.2721" y2="20.9932" gradientUnits="userSpaceOnUse">
<stop stop-color="#F23005"/>
<stop offset="1" stop-color="#F2CB05"/>
</linearGradient>
</defs>
</svg>
