<svg width="65" height="60" viewBox="0 0 65 60" fill="none" xmlns="http://www.w3.org/2000/svg">
<path d="M56.391 19.3205C56.391 19.3205 58.6015 19.9282 60.0516 20.0807C61.5686 20.2403 63.9556 20.0807 63.9556 20.0807C63.9556 20.0807 61.7495 21.485 60.2454 22.1934C58.9277 22.8141 56.7785 23.5459 56.7785 23.5459L56.391 19.3205Z" fill="url(#paint0_linear_338_130)"/>
<path d="M38.3237 40.177C38.3237 40.177 37.8237 42.8319 38.2716 44.4219C38.7539 46.1344 40.7737 48.1674 40.7737 48.1674C40.7737 48.1674 40.3848 44.7803 40.7737 42.674C41.2383 40.1575 43.328 36.6812 43.328 36.6812L38.3237 40.177Z" fill="#48541F"/>
<path d="M35.6634 41.4798C35.6634 41.4798 35.0271 44.3655 35.5971 46.0938C36.2109 47.9552 38.7815 50.165 38.7815 50.165C38.7815 50.165 38.2865 46.4834 38.7815 44.1939C39.3728 41.4586 42.0322 37.68 42.0322 37.68L35.6634 41.4798Z" fill="#63732C"/>
<path d="M7.71744 49.416C7.71744 49.416 23.5775 37.7842 30.557 26.8845C33.2946 22.6093 36.2196 18.1069 38.7976 14.1624C42.7246 8.15363 50.8317 7.23394 55.7987 12.2033C60.5279 16.9346 60.2898 24.9231 55.0475 29.1717C50.5173 32.8431 45.0856 36.9482 40.41 39.6474C28.9916 46.2391 7.71744 49.416 7.71744 49.416Z" fill="#23260A"/>
<path d="M49.348 16.2442C49.348 16.2442 52.852 15.9524 54.1168 17.4616C54.2987 17.6787 54.4673 17.9725 54.6101 18.2643C54.8844 18.8245 54.4993 19.4398 53.8805 19.4417C53.2895 19.4435 52.5924 19.3888 52.0782 19.1747C50.6598 18.584 49.348 16.2442 49.348 16.2442Z" fill="#FFF495"/>
<path fill-rule="evenodd" clip-rule="evenodd" d="M56.6091 27.6271C56.1502 28.1817 55.6297 28.6998 55.0474 29.1717C51.3349 32.1804 47.017 35.4804 43.0058 38.0592C41.0473 38.4213 39.6275 38.2292 39.2331 37.4002C38.4699 35.7956 41.8374 32.4131 46.7546 29.845C51.0856 27.583 55.1743 26.7073 56.6091 27.6271Z" fill="#F2CB05"/>
<path d="M6.87996 37.4303C6.87996 37.4303 20.1049 33.0246 27.7731 28.4647C31.0674 26.5058 34.8376 23.6255 38.1187 20.9285C42.0238 17.7186 47.9778 19.3446 49.3473 24.1639C50.3093 27.5491 48.5329 31.1683 45.2151 32.3525C40.845 33.9123 34.8316 35.8684 30.1097 36.6871C21.1554 38.2397 6.87996 37.4303 6.87996 37.4303Z" fill="#D2D904"/>
<defs>
<linearGradient id="paint0_linear_338_130" x1="64.4322" y1="18.7028" x2="56.2721" y2="20.9932" gradientUnits="userSpaceOnUse">
<stop stop-color="#F23005"/>
<stop offset="1" stop-color="#F2CB05"/>
</linearGradient>
</defs>
</svg>
