<svg width="65" height="60" viewBox="0 0 65 60" fill="none" xmlns="http://www.w3.org/2000/svg">
<path d="M8.60901 19.3205C8.60901 19.3205 6.39845 19.9282 4.94836 20.0807C3.4314 20.2403 1.04441 20.0807 1.04441 20.0807C1.04441 20.0807 3.25051 21.485 4.75461 22.1934C6.07231 22.8141 8.2215 23.5459 8.2215 23.5459L8.60901 19.3205Z" fill="url(#paint0_linear_355_2)"/>
<path d="M26.6763 40.177C26.6763 40.177 27.1763 42.8319 26.7284 44.4219C26.2461 46.1344 24.2263 48.1674 24.2263 48.1674C24.2263 48.1674 24.6152 44.7803 24.2263 42.674C23.7617 40.1575 21.672 36.6812 21.672 36.6812L26.6763 40.177Z" fill="#48541F"/>
<path d="M29.3366 41.4798C29.3366 41.4798 29.9729 44.3655 29.4029 46.0938C28.7891 47.9552 26.2185 50.165 26.2185 50.165C26.2185 50.165 26.7135 46.4834 26.2185 44.1939C25.6272 41.4586 22.9678 37.68 22.9678 37.68L29.3366 41.4798Z" fill="#63732C"/>
<path d="M57.2826 49.416C57.2826 49.416 41.4225 37.7842 34.443 26.8845C31.7054 22.6093 28.7804 18.1069 26.2024 14.1624C22.2754 8.15364 14.1683 7.23395 9.20125 12.2033C4.47212 16.9346 4.71016 24.9231 9.95251 29.1717C14.4827 32.8431 19.9144 36.9482 24.59 39.6474C36.0084 46.2391 57.2826 49.416 57.2826 49.416Z" fill="#23260A"/>
<path d="M15.652 16.2442C15.652 16.2442 12.148 15.9524 10.8832 17.4616C10.7013 17.6787 10.5327 17.9725 10.3899 18.2643C10.1156 18.8245 10.5007 19.4398 11.1195 19.4417C11.7105 19.4435 12.4076 19.3888 12.9218 19.1747C14.3402 18.584 15.652 16.2442 15.652 16.2442Z" fill="#FFF495"/>
<path fill-rule="evenodd" clip-rule="evenodd" d="M8.39091 27.6271C8.84977 28.1817 9.37031 28.6998 9.9526 29.1717C13.6651 32.1804 17.983 35.4804 21.9942 38.0592C23.9527 38.4213 25.3725 38.2292 25.7669 37.4002C26.5301 35.7956 23.1626 32.4131 18.2454 29.845C13.9144 27.583 9.82567 26.7074 8.39091 27.6271Z" fill="#F2CB05"/>
<path d="M58.12 37.4303C58.12 37.4303 44.8951 33.0246 37.2269 28.4647C33.9326 26.5058 30.1624 23.6255 26.8813 20.9285C22.9762 17.7186 17.0222 19.3446 15.6527 24.164C14.6907 27.5491 16.4671 31.1683 19.7849 32.3526C24.155 33.9123 30.1684 35.8684 34.8903 36.6871C43.8446 38.2397 58.12 37.4303 58.12 37.4303Z" fill="#D2D904"/>
<defs>
<linearGradient id="paint0_linear_355_2" x1="0.567812" y1="18.7028" x2="8.72791" y2="20.9932" gradientUnits="userSpaceOnUse">
<stop stop-color="#F23005"/>
<stop offset="1" stop-color="#F2CB05"/>
</linearGradient>
</defs>
</svg>
