<svg width="65" height="60" viewBox="0 0 65 60" fill="none" xmlns="http://www.w3.org/2000/svg">
<path d="M8.60901 19.3205C8.60901 19.3205 6.39845 19.9282 4.94836 20.0807C3.4314 20.2403 1.04441 20.0807 1.04441 20.0807C1.04441 20.0807 3.25051 21.485 4.75461 22.1934C6.07231 22.8141 8.2215 23.546 8.2215 23.546L8.60901 19.3205Z" fill="url(#paint0_linear_357_12)"/>
<path d="M25.0132 38.8577C25.0132 38.8577 24.8856 39.983 25.0132 40.9086C25.431 43.9387 28 47 28 47C28 47 24.5522 44.2675 22.3198 41.2538C20.6904 39.0542 19 35 19 35L25.0132 38.8577Z" fill="#48541F"/>
<path d="M29.3366 41.4798C29.3366 41.4798 29.2014 42.5883 29.3366 43.5C29.7791 46.4846 32.5 49.5 32.5 49.5C32.5 49.5 28.8483 46.8085 26.4839 43.84C24.7582 41.6734 22.9678 37.68 22.9678 37.68L29.3366 41.4798Z" fill="#63732C"/>
<path d="M57.2826 49.416C57.2826 49.416 41.4225 37.7842 34.443 26.8845C31.7054 22.6093 28.7804 18.1069 26.2024 14.1624C22.2754 8.15364 14.1683 7.23395 9.20125 12.2033C4.47212 16.9346 4.71016 24.9231 9.95251 29.1717C14.4827 32.8431 19.9144 36.9482 24.59 39.6474C36.0084 46.2391 57.2826 49.416 57.2826 49.416Z" fill="#23260A"/>
<path d="M15.652 16.2442C15.652 16.2442 12.148 15.9524 10.8832 17.4616C10.7013 17.6787 10.5327 17.9725 10.3899 18.2643C10.1156 18.8245 10.5007 19.4398 11.1195 19.4417C11.7105 19.4435 12.4076 19.3888 12.9218 19.1747C14.3402 18.584 15.652 16.2442 15.652 16.2442Z" fill="#FFF495"/>
<path fill-rule="evenodd" clip-rule="evenodd" d="M8.39091 27.6272C8.84977 28.1817 9.37031 28.6998 9.9526 29.1717C13.6651 32.1805 17.983 35.4804 21.9942 38.0592C23.9527 38.4213 25.3725 38.2292 25.7669 37.4002C26.5301 35.7957 23.1626 32.4131 18.2454 29.845C13.9144 27.583 9.82567 26.7074 8.39091 27.6272Z" fill="#F2CB05"/>
<path d="M58.2906 33.4228C58.2906 33.4228 45.223 20.4461 34.5361 18.3903C30.5545 17.6243 25.2264 18.0516 21.4144 18.5536C18.4832 18.9397 16.2762 21.2503 15.7747 24.1874C14.8416 29.6519 20.0408 34.3938 25.4176 33.2707C30.1531 32.2816 35.5366 31.4144 39.9647 31.3818C47.1446 31.329 58.2906 33.4228 58.2906 33.4228Z" fill="#D2D904"/>
<defs>
<linearGradient id="paint0_linear_357_12" x1="0.567812" y1="18.7028" x2="8.72791" y2="20.9932" gradientUnits="userSpaceOnUse">
<stop stop-color="#F23005"/>
<stop offset="1" stop-color="#F2CB05"/>
</linearGradient>
</defs>
</svg>
