<svg width="109" height="55" viewBox="0 0 109 55" fill="none" xmlns="http://www.w3.org/2000/svg">
<path d="M105.369 14.7727L25.0173 14.7727C23.3264 14.7727 21.6394 14.9372 19.98 15.2637L19.0224 15.4521C16.6556 15.9179 14.3887 16.7961 12.3255 18.0467L11.0532 18.8178C9.15636 19.9675 7.55303 21.5431 6.37029 23.4196L5.3392 25.0555C4.61291 26.2078 4.04493 27.4525 3.65055 28.7561C3.17783 30.3186 2.96019 31.947 3.006 33.5785L3.0999 36.922C3.15409 38.852 3.60801 40.7496 4.43296 42.4947C5.17306 44.0603 6.19813 45.4744 7.45582 46.6647L8.996 48.1223C9.80294 48.8859 10.7142 49.5313 11.7024 50.039C12.6127 50.5067 13.5803 50.8534 14.5806 51.0704L14.8279 51.1241C15.7812 51.3309 16.754 51.4353 17.7296 51.4353L18.1813 51.4353C19.0244 51.4353 19.8648 51.3378 20.6856 51.1449C21.8168 50.879 22.8985 50.4347 23.8901 49.8287L24.3648 49.5386C25.4955 48.8476 26.5074 47.9789 27.3616 46.9658C28.293 45.8612 29.023 44.6016 29.5183 43.2444L29.9088 42.1742C30.3449 40.9789 30.5681 39.7165 30.5681 38.4444C30.5681 37.1429 30.3345 35.8521 29.8785 34.6334L29.7317 34.2414C29.2594 32.9791 28.521 31.8333 27.5668 30.8817C26.6351 29.9525 25.5185 29.2293 24.2894 28.7591L23.8087 28.5752C22.815 28.195 21.7746 27.9507 20.7155 27.8489L20.5129 27.8294" stroke="white" stroke-width="6" stroke-linecap="round"/>
<path d="M28.3011 2.5L69.3011 2.5" stroke="white" stroke-width="5" stroke-linecap="round"/>
<path d="M86.3011 2.5H96.3011" stroke="white" stroke-width="5" stroke-linecap="round"/>
</svg>
