<svg width="109" height="44" viewBox="0 0 109 44" fill="none" xmlns="http://www.w3.org/2000/svg">
<path d="M2.99993 40.8546L83.3438 39.7597C85.0346 39.7366 86.7192 39.5492 88.3739 39.2001L89.3289 38.9986C91.6892 38.5007 93.9438 37.5917 95.9899 36.3131L97.2515 35.5247C99.1325 34.3492 100.714 32.752 101.871 30.8596L102.88 29.2097C103.591 28.0476 104.141 26.7953 104.518 25.4865C104.969 23.9176 105.165 22.2865 105.097 20.6557L104.957 17.3138C104.877 15.3847 104.397 13.4935 103.549 11.7598C102.787 10.2044 101.743 8.80443 100.469 7.63142L98.9092 6.19494C98.0919 5.44233 97.172 4.80947 96.1769 4.31525C95.2603 3.86003 94.2881 3.52649 93.285 3.32311L93.037 3.27283C92.0809 3.079 91.1068 2.98796 90.1313 3.00125L89.6796 3.0074C88.8366 3.01889 87.9976 3.12778 87.1795 3.33189C86.0521 3.61315 84.9765 4.07214 83.9932 4.69161L83.5225 4.98817C82.4014 5.69448 81.4014 6.57692 80.5611 7.60149L80.0603 8.21212C79.4753 8.92539 79.0202 9.73589 78.7159 10.6066L78.4963 11.2347C77.8329 13.1326 78.0838 15.23 79.1759 16.9167L79.6881 17.7125C81.9421 21.2148 86.5118 22.3925 90.181 20.4167" stroke="white" stroke-width="6" stroke-linecap="round"/>
<path d="M46.2964 32.3408L14.3043 33.0509" stroke="white" stroke-width="5" stroke-linecap="round"/>
<path d="M89.7866 9.98755L90.023 10.0135C92.9927 10.3399 95.659 11.9821 97.2866 14.4874" stroke="white" stroke-width="5" stroke-linecap="round"/>
</svg>
