<svg width="121" height="64" viewBox="0 0 121 64" fill="none" xmlns="http://www.w3.org/2000/svg">
<path d="M14 52.748L95.0832 52.7482C96.5911 52.7482 98.0965 52.6234 99.584 52.375L100.782 52.175C103.189 51.7732 105.504 50.9464 107.621 49.7332L108.874 49.0157C110.821 47.8995 112.483 46.345 113.726 44.4755L114.802 42.8565C115.57 41.7011 116.181 40.4488 116.619 39.1324C117.141 37.5627 117.411 35.9203 117.418 34.2664L117.432 30.8328C117.441 28.8832 117.051 26.9528 116.286 25.1599C115.593 23.5364 114.606 22.0552 113.374 20.7912L111.893 19.2709C111.117 18.4752 110.233 17.7942 109.265 17.2484C108.367 16.7419 107.406 16.3564 106.406 16.102L106.174 16.0428C105.226 15.8015 104.254 15.6639 103.277 15.6325L102.834 15.6183C101.988 15.5912 101.142 15.6634 100.314 15.8336C99.1768 16.0671 98.0848 16.4823 97.0798 17.0632L96.6066 17.3366C95.4415 18.0101 94.3928 18.8674 93.5011 19.8754C92.5393 20.9628 91.7744 22.2095 91.2409 23.5594L90.809 24.6521C90.3332 25.8559 90.0688 27.1326 90.0276 28.4261C89.9854 29.7494 90.1773 31.0695 90.5945 32.3257L90.7358 32.7511C91.1614 34.0326 91.8558 35.2083 92.7725 36.1996C93.6798 37.1807 94.7843 37.9589 96.0137 38.4832L96.4559 38.6719C97.4416 39.0922 98.4803 39.3756 99.543 39.5141L99.7333 39.5389" stroke="white" stroke-width="6" stroke-linecap="round"/>
<path d="M54.5 61.3762H27.5" stroke="white" stroke-width="5" stroke-linecap="round"/>
<path d="M29.5 44.3762H2.5" stroke="white" stroke-width="5" stroke-linecap="round"/>
<path d="M113.5 11.8762C106.223 6.8425 96.4257 7.5382 89.9327 13.5498L88.5 14.8762" stroke="white" stroke-width="5" stroke-linecap="round"/>
</svg>
