<svg width="123" height="49" viewBox="0 0 123 49" fill="none" xmlns="http://www.w3.org/2000/svg">
<path d="M119.484 3.00001L23.8141 3.00527L23.361 3.05319C20.1686 3.39085 17.0807 4.38776 14.2928 5.98079L14.0247 6.134C12.2891 7.12574 10.7036 8.35973 9.31594 9.79873C7.12542 12.0704 5.47375 14.8054 4.4833 17.8013L4.23714 18.5458C3.27363 21.4602 2.86685 24.5295 3.03804 27.5935L3.14157 29.4465C3.21552 30.7701 3.43786 32.0811 3.80441 33.3549C4.35275 35.2604 5.21732 37.0601 6.36203 38.6788L6.7405 39.214C7.1327 39.7686 7.56522 40.2936 8.03455 40.7846L8.21042 40.9686C9.16974 41.9723 10.2916 42.8068 11.5289 43.437C12.4802 43.9215 13.4904 44.2805 14.5343 44.505L16.6414 44.9582L18.132 45.1978C19.7411 45.4565 21.383 45.4338 22.9847 45.1309C26.2766 44.5082 29.2396 42.7327 31.3417 40.1231L31.5248 39.8958C32.8128 38.2968 33.7349 36.4351 34.226 34.4418L34.2978 34.1507C35.0373 31.1493 34.7017 27.9843 33.3493 25.2062L33.1921 24.8834C32.5723 23.6101 31.7188 22.4646 30.6762 21.5065C28.589 19.5885 25.8575 18.5242 23.0219 18.5242L22.665 18.5242" stroke="white" stroke-width="6" stroke-linecap="round"/>
<path d="M27.677 32.3904L27.5136 32.9754C26.5409 36.4576 23.2747 38.7926 19.6651 38.5864" stroke="white" stroke-width="5" stroke-linecap="round"/>
<path d="M90.665 10.3904L48.665 10.3904" stroke="white" stroke-width="5" stroke-linecap="round"/>
</svg>
