<svg width="109" height="55" viewBox="0 0 109 55" fill="none" xmlns="http://www.w3.org/2000/svg">
<path d="M2.99999 14.7727L83.3513 14.7727C85.0423 14.7727 86.7293 14.9372 88.3886 15.2637L89.3463 15.4521C91.7131 15.9179 93.9799 16.7961 96.0432 18.0467L97.3154 18.8178C99.2123 19.9675 100.816 21.5431 101.998 23.4196L103.029 25.0555C103.756 26.2078 104.324 27.4525 104.718 28.7561C105.191 30.3186 105.408 31.947 105.363 33.5785L105.269 36.922C105.215 38.852 104.761 40.7496 103.936 42.4947C103.196 44.0603 102.171 45.4744 100.913 46.6647L99.3727 48.1223C98.5657 48.8859 97.6545 49.5313 96.6662 50.039C95.7559 50.5067 94.7883 50.8534 93.7881 51.0704L93.5407 51.1241C92.5874 51.3309 91.6147 51.4353 90.6391 51.4353L90.1874 51.4353C89.3442 51.4353 88.5039 51.3378 87.683 51.1449C86.5519 50.879 85.4702 50.4347 84.4785 49.8287L84.0038 49.5386C82.8732 48.8476 81.8613 47.9789 81.0071 46.9658C80.0756 45.8612 79.3456 44.6016 78.8504 43.2444L78.4599 42.1742C78.0237 40.9789 77.8005 39.7165 77.8005 38.4444C77.8005 37.1429 78.0341 35.8521 78.4902 34.6334L78.6369 34.2414C79.1093 32.9791 79.8476 31.8333 80.8018 30.8817C81.7336 29.9525 82.8501 29.2293 84.0793 28.7591L84.56 28.5752C85.5536 28.195 86.5941 27.9507 87.6532 27.8489L87.8557 27.8294" stroke="white" stroke-width="6" stroke-linecap="round"/>
<path d="M80.0675 2.5L39.0675 2.5" stroke="white" stroke-width="5" stroke-linecap="round"/>
<path d="M22.0675 2.5H12.0675" stroke="white" stroke-width="5" stroke-linecap="round"/>
</svg>
