<svg width="123" height="49" viewBox="0 0 123 49" fill="none" xmlns="http://www.w3.org/2000/svg">
<path d="M119.484 45.3762L23.8141 45.371L23.361 45.323C20.1686 44.9854 17.0807 43.9885 14.2928 42.3954L14.0247 42.2422C12.2891 41.2505 10.7036 40.0165 9.31594 38.5775C7.12542 36.3059 5.47375 33.5708 4.4833 30.575L4.23714 29.8304C3.27363 26.916 2.86685 23.8467 3.03804 20.7827L3.14157 18.9297C3.21552 17.6061 3.43786 16.2951 3.80441 15.0213C4.35275 13.1158 5.21732 11.3161 6.36203 9.69738L6.7405 9.16219C7.1327 8.60758 7.56522 8.08264 8.03455 7.5916L8.21042 7.40759C9.16974 6.40391 10.2916 5.56942 11.5289 4.93925C12.4802 4.45473 13.4904 4.09573 14.5343 3.87124L16.6414 3.41805L18.132 3.17843C19.7411 2.91975 21.383 2.94239 22.9847 3.24534C26.2766 3.86797 29.2396 5.64348 31.3417 8.2531L31.5248 8.48041C32.8128 10.0794 33.7349 11.9411 34.226 13.9345L34.2978 14.2255C35.0373 17.2269 34.7017 20.3919 33.3493 23.1701L33.1921 23.4929C32.5723 24.7661 31.7188 25.9116 30.6762 26.8698C28.589 28.7878 25.8575 29.852 23.0219 29.852L22.665 29.852" stroke="white" stroke-width="6" stroke-linecap="round"/>
<path d="M23.665 23.292L24.1622 22.9431C27.1216 20.8661 28.2355 17.0087 26.8389 13.6739" stroke="white" stroke-width="5" stroke-linecap="round"/>
</svg>
