<svg width="109" height="51" viewBox="0 0 109 51" fill="none" xmlns="http://www.w3.org/2000/svg">
<path d="M2.99999 39.6626L83.3513 39.6626C85.0423 39.6626 86.7293 39.4981 88.3886 39.1716L89.3463 38.9832C91.7131 38.5174 93.9799 37.6392 96.0432 36.3886L97.3154 35.6175C99.2123 34.4678 100.816 32.8922 101.998 31.0158L103.029 29.3798C103.756 28.2275 104.324 26.9828 104.718 25.6792C105.191 24.1167 105.408 22.4883 105.363 20.8568L105.269 17.5133C105.215 15.5833 104.761 13.6858 103.936 11.9406C103.196 10.375 102.171 8.9609 100.913 7.77064L99.3727 6.31305C98.5657 5.54937 97.6545 4.90403 96.6662 4.3963C95.7559 3.92863 94.7883 3.58188 93.7881 3.36485L93.5407 3.31119C92.5874 3.10435 91.6147 3.00005 90.6391 3.00005L90.1874 3.00004C89.3442 3.00004 88.5039 3.09749 87.683 3.29043C86.5519 3.55631 85.4702 4.0006 84.4785 4.60661L84.0038 4.89673C82.8732 5.58769 81.8613 6.45643 81.0071 7.46946C80.0756 8.57407 79.3456 9.83375 78.8504 11.1909L78.4599 12.2611C78.0237 13.4564 77.8005 14.7188 77.8005 15.9909C77.8005 17.2924 78.0341 18.5832 78.4902 19.8019L78.6369 20.1939C79.1093 21.4562 79.8476 22.602 80.8018 23.5537C81.7336 24.4828 82.8501 25.206 84.0793 25.6762L84.56 25.8601C85.5536 26.2403 86.5941 26.4846 87.6532 26.5864L87.8557 26.6059" stroke="white" stroke-width="6" stroke-linecap="round"/>
<path d="M18.7925 30.8945H7.79248" stroke="white" stroke-width="5" stroke-linecap="round"/>
<path d="M91.8018 10.1311C88.134 10.1312 85.0831 12.9742 84.8018 16.6312" stroke="white" stroke-width="5" stroke-linecap="round"/>
<path d="M71.7925 47.8945H48.7925" stroke="white" stroke-width="5" stroke-linecap="round"/>
</svg>
