<svg width="110" height="53" viewBox="0 0 110 53" fill="none" xmlns="http://www.w3.org/2000/svg">
<path d="M106.024 12.033L25.6732 12.3615C23.9823 12.3684 22.2959 12.5397 20.638 12.873L19.6811 13.0654C17.3162 13.5408 15.053 14.4283 12.9949 15.6873L11.7258 16.4636C9.8336 17.6211 8.23672 19.2031 7.06167 21.0845L6.03727 22.7246C5.3157 23.8799 4.75282 25.1269 4.36377 26.4321C3.89744 27.9965 3.68646 29.6258 3.73894 31.257L3.8465 34.6002C3.90859 36.53 4.37026 38.4256 5.20234 40.1674C5.94883 41.73 6.97968 43.1398 8.24223 44.3249L9.78834 45.7762C10.5984 46.5366 11.5122 47.1782 12.5026 47.6819C13.4148 48.1458 14.3838 48.4886 15.3849 48.7016L15.6325 48.7542C16.5866 48.9571 17.5598 49.0575 18.5354 49.0535L18.9871 49.0516C19.8302 49.0482 20.6702 48.9473 21.4902 48.751C22.6203 48.4805 23.7002 48.0318 24.6893 47.4217L25.1628 47.1297C26.2906 46.4341 27.299 45.5612 28.1491 44.5447C29.076 43.4363 29.8008 42.1737 30.2905 40.8145L30.6766 39.7427C31.1079 38.5456 31.3259 37.2823 31.3207 36.0102C31.3154 34.7087 31.0765 33.4189 30.6155 32.2021L30.4672 31.8107C29.9896 30.5503 29.2466 29.4076 28.2885 28.4598C27.353 27.5345 26.2335 26.8159 25.0025 26.3507L24.521 26.1688C23.5258 25.7927 22.4844 25.5526 21.4248 25.4551L21.2222 25.4365" stroke="white" stroke-width="6" stroke-linecap="round"/>
<path d="M66.0002 2.5L21.7051 2.91014C15.3961 2.96856 9.26615 5.01455 4.18687 8.75718L2.50018 10" stroke="white" stroke-width="5" stroke-linecap="round"/>
<path d="M95.5002 23.5L64.5002 23.5" stroke="white" stroke-width="5" stroke-linecap="round"/>
</svg>
