<svg width="103" height="44" viewBox="0 0 103 44" fill="none" xmlns="http://www.w3.org/2000/svg">
<path d="M99.8999 32.6002L20.3067 32.5175L18.1953 32.5175C17.0193 32.5175 15.8486 32.3577 14.7154 32.0426C13.6779 31.754 12.6803 31.3376 11.7454 30.8028L9.85908 29.7239L7.95854 28.2957C7.07087 27.6286 6.32764 26.7885 5.77382 25.8261C5.57069 25.4731 5.39409 25.1055 5.24551 24.7264L4.1627 21.9633C3.2598 19.6593 2.87496 17.1851 3.03549 14.7164L3.08401 13.9703C3.14754 12.9934 3.33904 12.0291 3.65362 11.1022C4.09686 9.79623 4.77788 8.58364 5.66232 7.52565L6.03536 7.07942C6.38797 6.65761 6.77487 6.26021 7.18667 5.89597C8.05355 5.12921 9.04364 4.49982 10.107 4.04272C10.8651 3.71684 11.6578 3.47816 12.4698 3.33126L12.956 3.24332C13.8558 3.08055 14.7685 2.99914 15.683 3.00009L16.638 3.00108C17.1247 3.00159 17.6101 3.04946 18.0876 3.14401C19.4655 3.41693 20.7395 4.07127 21.7642 5.03252L22.214 5.45441C22.5494 5.76907 22.8653 6.11146 23.1526 6.47065C24.0965 7.65084 24.7712 9.04374 25.1044 10.5175L25.1575 10.7523C25.329 11.5106 25.4155 12.2856 25.4155 13.063L25.4155 13.6575C25.4155 15.2174 24.9804 16.7461 24.1591 18.0717L24.1095 18.1518C23.6216 18.9394 22.998 19.6344 22.2678 20.2047C20.8876 21.2824 19.1865 21.8677 17.4348 21.8677L17.4041 21.8677" stroke="white" stroke-width="6" stroke-linecap="round"/>
<path d="M83.8517 40.7729H62.8517" stroke="white" stroke-width="5" stroke-linecap="round"/>
<path d="M45.8517 40.7729L19.8517 40.7729" stroke="white" stroke-width="5" stroke-linecap="round"/>
</svg>
