<svg width="109" height="43" viewBox="0 0 109 43" fill="none" xmlns="http://www.w3.org/2000/svg">
<path d="M105.369 3.00001L25.0172 3.00002C23.3263 3.00002 21.6393 3.16445 19.98 3.49098L19.0223 3.67943C16.6555 4.14519 14.3887 5.02341 12.3254 6.27398L11.0532 7.0451C9.1563 8.19482 7.55297 9.77035 6.37023 11.6468L5.33913 13.2828C4.61285 14.4351 4.04487 15.6798 3.65049 16.9834C3.17777 18.5459 2.96012 20.1743 3.00594 21.8058L3.09983 25.1493C3.15403 27.0793 3.60795 28.9769 4.4329 30.722C5.173 32.2876 6.19807 33.7017 7.45576 34.892L7.8826 35.2959L8.99593 36.3495C9.80287 37.1132 10.7141 37.7586 11.7024 38.2663C12.6127 38.734 13.5802 39.0807 14.5805 39.2977L14.8278 39.3514C15.7811 39.5582 16.7539 39.6626 17.7295 39.6626L18.1812 39.6626C19.0243 39.6626 19.8647 39.5651 20.6856 39.3722C21.8167 39.1063 22.8984 38.662 23.8901 38.056L24.3648 37.7659C25.4954 37.0749 26.5073 36.2062 27.3615 35.1931C28.293 34.0885 29.023 32.8288 29.5182 31.4717L29.9087 30.4015C30.3449 29.2062 30.568 27.9438 30.568 26.6717C30.568 25.3702 30.3345 24.0794 29.8784 22.8607L29.7317 22.4687C29.2593 21.2064 28.521 20.0606 27.5667 19.1089C26.635 18.1798 25.5185 17.4566 24.2893 16.9864L23.8086 16.8025C22.815 16.4223 21.7745 16.178 20.7154 16.0762L20.5129 16.0567" stroke="white" stroke-width="6" stroke-linecap="round"/>
<path d="M61.8436 10.467L34.8436 10.467" stroke="white" stroke-width="5" stroke-linecap="round"/>
<path d="M76.8436 10.467H72.8436" stroke="white" stroke-width="5" stroke-linecap="round"/>
<path d="M13.8436 31.967L15.4088 32.7416C18.7626 34.4012 22.8012 32.6243 23.8436 29.0305" stroke="white" stroke-width="5" stroke-linecap="round"/>
</svg>
