<svg width="151" height="55" viewBox="0 0 151 55" fill="none" xmlns="http://www.w3.org/2000/svg">
<path d="M3.00001 3.01703L119.338 3.00008L120.313 3.00008C125.873 3.00008 131.304 4.67682 135.896 7.81132L136.535 8.24761C138.537 9.61398 140.308 11.2906 141.782 13.2144C142.91 14.6872 143.855 16.2921 144.595 17.9937L145.116 19.193C146.669 22.6525 147.318 26.4575 146.996 30.2364L146.76 32.7018C146.529 35.1228 145.854 37.4806 144.768 39.6572C143.654 41.8912 142.128 43.8947 140.27 45.562L138.292 47.3369C137.131 48.379 135.83 49.2543 134.427 49.9377C133.164 50.553 131.829 51.0076 130.454 51.2908L130.052 51.3735C128.721 51.6474 127.366 51.7855 126.008 51.7857L125.339 51.7858C124.167 51.786 122.999 51.6576 121.856 51.4028C120.259 51.0472 118.726 50.4489 117.31 49.6288L116.597 49.2157C115.065 48.3278 113.684 47.2008 112.507 45.8773C111.178 44.3837 110.13 42.6628 109.413 40.7973L108.893 39.448C108.286 37.8697 107.975 36.193 107.975 34.5018C107.975 32.7711 108.302 31.0559 108.938 29.446L109.107 29.0172C109.798 27.2665 110.865 25.6889 112.233 24.3957C113.512 23.1858 115.027 22.2516 116.682 21.6509L117.496 21.3554C118.87 20.857 120.302 20.5374 121.757 20.4045L122.089 20.3742" stroke="white" stroke-width="6" stroke-linecap="round"/>
<path d="M130.336 13.0684L128.983 12.4024C123.003 9.45759 116.129 8.70596 109.554 10.2776" stroke="white" stroke-width="5" stroke-linecap="round"/>
</svg>
